<svg xmlns="http://www.w3.org/2000/svg" viewBox="0 0 67 18.46"><defs><style>.cls-1{fill:#004040;}.cls-2{fill:#f28157;}.cls-3{font-size:10.16px;fill:#bfbfbf;font-family:Montserrat-Regular, Montserrat;}.cls-4{letter-spacing:-0.01em;}.cls-5{letter-spacing:0.01em;}</style></defs><title>call3</title><g id="Layer_2" data-name="Layer 2"><g id="Layer_1-2" data-name="Layer 1"><rect class="cls-1" width="24.31" height="17.4"/><path class="cls-2" d="M21.41,11.37a8.8,8.8,0,0,1-2.78-.45.79.79,0,0,0-.8.19l-1.24,1.56a12,12,0,0,1-5.43-5.39L12.7,6a.79.79,0,0,0,.19-.8,8.8,8.8,0,0,1-.44-2.78.79.79,0,0,0-.78-.78H8.94c-.43,0-.94.19-.94.78A13.53,13.53,0,0,0,21.41,15.8a.83.83,0,0,0,.78-.93V12.15A.78.78,0,0,0,21.41,11.37Z"/><rect class="cls-2" x="24.31" width="42.69" height="17.4"/><text class="cls-3" transform="translate(24.31 15.8) scale(1.19 1)">di<tspan class="cls-4" x="9.62" y="0">r</tspan><tspan x="13.56" y="0">e</tspan><tspan class="cls-5" x="19.7" y="0">c</tspan><tspan x="25.48" y="0">t</tspan></text></g></g></svg>